<?xml version="1.0" encoding="UTF-8"?>
<svg id="Layer_1" xmlns="http://www.w3.org/2000/svg" version="1.1" viewBox="0 0 613 613">
  <!-- Generator: Adobe Illustrator 29.0.1, SVG Export Plug-In . SVG Version: 2.1.0 Build 192)  -->
  <defs>
    <style>
      .st0 {
        fill: #fff;
      }

      .st1 {
        fill: #504259;
      }
    </style>
  </defs>
  <rect class="st1" width="614" height="614"/>
  <g>
    <path class="st0" d="M304,137.1c55.2,0,61.7.2,83.5,1.2,20.2.9,31.1,4.3,38.4,7.1,8.9,3.3,17.1,8.6,23.8,15.4,6.9,6.6,12.1,14.8,15.4,23.8,2.9,7.3,6.2,18.2,7.1,38.4,1,21.8,1.2,28.3,1.2,83.5s-.2,61.7-1.2,83.5c-.9,20.2-4.3,31.1-7.1,38.4-7,18-21.2,32.2-39.2,39.2-7.3,2.9-18.2,6.2-38.4,7.1-21.8,1-28.3,1.2-83.5,1.2s-61.7-.2-83.5-1.2c-20.2-.9-31.1-4.3-38.4-7.1-8.9-3.3-17.1-8.6-23.8-15.4-6.9-6.6-12.1-14.8-15.4-23.8-2.9-7.3-6.2-18.2-7.1-38.4-1-21.8-1.2-28.3-1.2-83.5s.2-61.7,1.2-83.5c.9-20.2,4.3-31.1,7.1-38.4,3.3-8.9,8.6-17.1,15.4-23.8,6.6-6.9,14.8-12.1,23.8-15.4,7.3-2.9,18.2-6.2,38.4-7.1,21.8-1,28.3-1.2,83.5-1.2M304,99.9c-56.1,0-63.1.2-85.2,1.2-22,1-37,4.5-50.2,9.6-13.8,5.2-26.2,13.3-36.6,23.9-10.5,10.3-18.6,22.8-23.9,36.6-5.1,13.1-8.6,28.1-9.6,50.2s-1.2,29-1.2,85.2.2,63.1,1.2,85.2c1,22,4.5,37,9.6,50.2,5.2,13.8,13.3,26.2,23.9,36.6,10.3,10.5,22.8,18.6,36.6,23.9,13.1,5.1,28.1,8.6,50.2,9.6,22.1,1,29,1.2,85.2,1.2s63.1-.2,85.2-1.2c22-1,37-4.5,50.2-9.6,27.7-10.7,49.7-32.6,60.4-60.4,5.1-13.1,8.6-28.1,9.6-50.2s1.2-29,1.2-85.2-.2-63.1-1.2-85.2c-1-22-4.5-37-9.6-50.2-5.2-13.8-13.3-26.2-23.9-36.6-10.3-10.5-22.8-18.6-36.6-23.9-13.1-5.1-28.1-8.6-50.2-9.6s-29-1.2-85.2-1.2h0Z"/>
    <path class="st0" d="M304,200.3c-58.5,0-106.1,47.5-106.1,106.1s47.5,106.1,106.1,106.1,106.1-47.5,106.1-106.1h0c0-58.5-47.5-106.1-106.1-106.1h0ZM304,375.3c-38,0-68.9-30.8-68.9-68.9s30.8-68.9,68.9-68.9,68.9,30.8,68.9,68.9-30.8,68.9-68.9,68.9Z"/>
    <circle class="st0" cx="414.3" cy="196.1" r="24.8"/>
  </g>
</svg>